<?xml version="1.0" encoding="UTF-8"?>
<svg id="_Шар_2" data-name="Шар 2" xmlns="http://www.w3.org/2000/svg" viewBox="0 0 94.94 18.99">
  <defs>
    <style>
      .cls-1 {
        fill: #f3ba2f;
      }
    </style>
  </defs>
  <g id="_Шар_1-2" data-name="Шар 1">
    <g>
      <polygon class="cls-1" points="5.81 7.98 9.49 4.29 13.18 7.98 15.33 5.84 9.49 0 3.66 5.83 5.81 7.98"/>
      <rect class="cls-1" x=".63" y="7.98" width="3.03" height="3.03" transform="translate(-6.08 4.3) rotate(-45)"/>
      <polygon class="cls-1" points="5.81 11.01 9.49 14.7 13.18 11.01 15.33 13.15 15.33 13.15 9.49 18.99 3.66 13.15 3.66 13.15 5.81 11.01"/>
      <rect class="cls-1" x="15.33" y="7.98" width="3.03" height="3.03" transform="translate(-1.78 14.69) rotate(-45)"/>
      <polygon class="cls-1" points="11.67 9.49 11.67 9.49 9.49 7.32 7.88 8.92 7.88 8.92 7.7 9.11 7.32 9.49 7.32 9.49 7.32 9.49 7.32 9.5 9.49 11.67 11.67 9.49 11.67 9.49 11.67 9.49"/>
      <path class="cls-1" d="m22.33,4.6h4.67c1.16,0,2.03.3,2.63.89.46.46.69,1.03.69,1.71v.03c0,.29-.04.54-.11.76-.07.22-.17.42-.29.6-.12.18-.26.33-.41.47-.16.13-.33.25-.51.35.58.22,1.04.52,1.37.9.33.38.5.9.5,1.58v.03c0,.46-.09.86-.27,1.21-.18.35-.43.63-.76.86-.33.23-.73.4-1.19.52-.46.12-.98.17-1.54.17h-4.78V4.6Zm4.2,4.07c.49,0,.88-.08,1.17-.25.29-.17.43-.44.43-.81v-.03c0-.34-.12-.59-.37-.77-.25-.18-.61-.27-1.08-.27h-2.19v2.13s2.04,0,2.04,0Zm.59,4.06c.49,0,.87-.09,1.15-.27.28-.18.42-.45.42-.83v-.03c0-.34-.13-.6-.39-.8-.26-.2-.68-.29-1.25-.29h-2.56v2.22h2.63Z"/>
      <path class="cls-1" d="m33.66,4.6h2.22v10.07h-2.22V4.6Z"/>
      <path class="cls-1" d="m39.23,4.6h2.04l4.72,6.2v-6.2h2.19v10.07h-1.88l-4.88-6.4v6.4h-2.19V4.6Z"/>
      <path class="cls-1" d="m54.88,4.53h2.04l4.32,10.14h-2.32l-.92-2.26h-4.26l-.92,2.26h-2.26l4.32-10.14Zm2.33,5.93l-1.34-3.27-1.34,3.27h2.68Z"/>
      <path class="cls-1" d="m63.63,4.6h2.04l4.72,6.2v-6.2h2.19v10.07h-1.88l-4.88-6.4v6.4h-2.19V4.6Z"/>
      <path class="cls-1" d="m80.55,14.84c-.74,0-1.42-.13-2.06-.4s-1.18-.64-1.64-1.1c-.46-.47-.82-1.01-1.08-1.65-.26-.63-.39-1.31-.39-2.03v-.03c0-.72.13-1.39.39-2.02.26-.63.62-1.18,1.08-1.65.46-.47,1.01-.85,1.65-1.12s1.35-.41,2.13-.41c.47,0,.9.04,1.29.12.39.08.74.18,1.06.32.32.13.61.3.88.49.27.19.52.4.75.63l-1.41,1.63c-.39-.35-.79-.63-1.2-.83-.41-.2-.87-.3-1.37-.3-.42,0-.81.08-1.17.24-.36.16-.67.39-.93.68-.26.29-.46.62-.6,1-.14.38-.22.78-.22,1.22v.03c0,.43.07.84.22,1.22.14.38.34.72.6,1.01.25.29.56.52.92.68.36.17.76.25,1.19.25.58,0,1.06-.11,1.46-.32.4-.21.79-.5,1.19-.86l1.41,1.42c-.26.28-.53.53-.81.75-.28.22-.58.41-.91.57-.33.16-.69.28-1.09.36-.39.08-.83.12-1.32.12Z"/>
      <path class="cls-1" d="m87.28,4.6h7.58v1.97h-5.39v2.04h4.75v1.97h-4.75v2.11h5.47v1.97h-7.65V4.6Z"/>
    </g>
  </g>
</svg>