<svg width="50" height="22" viewBox="0 0 50 22" fill="none" xmlns="http://www.w3.org/2000/svg">
<g id="icon-apple-pa">
<path id="Vector" d="M9.38367 3.1844C9.96827 2.45317 10.365 1.47134 10.2604 0.468018C9.40456 0.510572 8.36023 1.03262 7.7556 1.76443C7.21272 2.39111 6.73222 3.41406 6.85748 4.37531C7.81817 4.45864 8.77796 3.89512 9.38367 3.1844Z" fill="black"/>
<path id="Vector_2" d="M10.2502 4.56294C8.85503 4.47984 7.66881 5.35475 7.00256 5.35475C6.33594 5.35475 5.31569 4.60482 4.2122 4.62503C2.77595 4.64613 1.44327 5.4582 0.714426 6.74977C-0.784667 9.33355 0.318816 13.1662 1.77661 15.2705C2.48455 16.3116 3.33773 17.4579 4.46194 17.4167C5.52412 17.3751 5.94045 16.729 7.23158 16.729C8.52175 16.729 8.89678 17.4167 10.0212 17.3959C11.1872 17.3751 11.9162 16.3543 12.6241 15.3122C13.4362 14.1254 13.7687 12.9795 13.7896 12.9166C13.7687 12.8957 11.5412 12.0412 11.5205 9.47893C11.4995 7.33348 13.2694 6.31298 13.3527 6.24969C12.3532 4.7715 10.7916 4.60482 10.2502 4.56294Z" fill="black"/>
<path id="Vector_3" d="M22.3977 1.65942C25.43 1.65942 27.5415 3.74963 27.5415 6.79281C27.5415 9.84686 25.3866 11.9479 22.3217 11.9479H18.9643V17.2871H16.5386V1.65942H22.3977ZM18.9643 9.91183H21.7476C23.8596 9.91183 25.0615 8.77481 25.0615 6.80367C25.0615 4.83275 23.8596 3.70638 21.7585 3.70638H18.9643V9.91183Z" fill="black"/>
<path id="Vector_4" d="M28.1753 14.049C28.1753 12.0562 29.7024 10.8325 32.4101 10.6808L35.5289 10.4968V9.61965C35.5289 8.35249 34.6732 7.59441 33.244 7.59441C31.8899 7.59441 31.0451 8.24407 30.8396 9.26223H28.6303C28.7602 7.2044 30.5145 5.68823 33.3304 5.68823C36.092 5.68823 37.8572 7.15029 37.8572 9.4354V17.2871H35.6153V15.4135H35.5615C34.9009 16.6807 33.4604 17.482 31.9659 17.482C29.7349 17.482 28.1753 16.0958 28.1753 14.049ZM35.5289 13.0202V12.1214L32.7238 12.2945C31.3267 12.3921 30.5363 13.0094 30.5363 13.9841C30.5363 14.9803 31.3593 15.6302 32.6156 15.6302C34.2508 15.6302 35.5289 14.5038 35.5289 13.0202Z" fill="black"/>
<path id="Vector_5" d="M39.9736 21.4782V19.5829C40.1465 19.6261 40.5363 19.6261 40.7314 19.6261C41.8144 19.6261 42.3993 19.1714 42.7565 18.0018C42.7565 17.98 42.9624 17.3087 42.9624 17.2978L38.8472 5.8938H41.3811L44.2622 15.1643H44.3052L47.1863 5.8938H49.6554L45.3881 17.8825C44.4138 20.6443 43.2875 21.5323 40.9265 21.5323C40.7314 21.5323 40.1465 21.5106 39.9736 21.4782Z" fill="black"/>
</g>
</svg>
