<svg width="54" height="22" viewBox="0 0 54 22" fill="none" xmlns="http://www.w3.org/2000/svg">
<g id="icon-google-pay">
<path id="Vector" d="M25.3328 10.7166V16.833H23.3917V1.729H28.5376C29.8418 1.729 30.9539 2.16373 31.8638 3.03317C32.7939 3.90262 33.2589 4.96415 33.2589 6.21777C33.2589 7.50171 32.7939 8.56324 31.8638 9.42258C30.964 10.2819 29.8519 10.7065 28.5376 10.7065H25.3328V10.7166ZM25.3328 3.58921V8.85643H28.5781C29.3464 8.85643 29.9934 8.59358 30.4989 8.07797C31.0145 7.56237 31.2774 6.93556 31.2774 6.22787C31.2774 5.5303 31.0145 4.9136 30.4989 4.398C29.9934 3.86218 29.3565 3.59932 28.5781 3.59932H25.3328V3.58921Z" fill="#3C4043"/>
<path id="Vector_2" d="M38.3343 6.15771C39.7699 6.15771 40.9022 6.54189 41.7312 7.31023C42.5602 8.07858 42.9747 9.13 42.9747 10.4645V16.8336H41.1246V15.3981H41.0437C40.2451 16.5809 39.1734 17.1673 37.8389 17.1673C36.6965 17.1673 35.7462 16.8336 34.9778 16.1563C34.2095 15.4789 33.8253 14.6398 33.8253 13.6288C33.8253 12.5572 34.2297 11.708 35.0385 11.0812C35.8473 10.4443 36.929 10.1309 38.2736 10.1309C39.4262 10.1309 40.3765 10.3432 41.1145 10.7678V10.323C41.1145 9.64561 40.8517 9.07945 40.3158 8.60429C39.78 8.12913 39.1532 7.8966 38.4354 7.8966C37.3537 7.8966 36.4943 8.35154 35.8675 9.27154L34.1589 8.1999C35.0992 6.83507 36.4943 6.15771 38.3343 6.15771ZM35.8271 13.6592C35.8271 14.1647 36.0394 14.5893 36.4741 14.9229C36.8987 15.2565 37.4042 15.4284 37.9805 15.4284C38.7994 15.4284 39.5273 15.1251 40.1642 14.5185C40.8011 13.9119 41.1246 13.2042 41.1246 12.3853C40.518 11.9102 39.6789 11.6675 38.5972 11.6675C37.8086 11.6675 37.1515 11.8596 36.6257 12.2337C36.0899 12.628 35.8271 13.1031 35.8271 13.6592Z" fill="#3C4043"/>
<path id="Vector_3" d="M53.5287 6.49121L47.0584 21.3728H45.0566L47.4628 16.1663L43.1964 6.49121H45.3094L48.3828 13.9118H48.4232L51.4157 6.49121H53.5287Z" fill="#3C4043"/>
<path id="Vector_4" d="M17.6137 9.48387C17.6137 8.851 17.5571 8.24542 17.4519 7.66309H9.31555V10.9993L14.0015 11.0003C13.8114 12.1104 13.1997 13.0566 12.2626 13.6875V15.852H15.0519C16.6806 14.3446 17.6137 12.1164 17.6137 9.48387Z" fill="#4285F4"/>
<path id="Vector_5" d="M12.2634 13.6873C11.4869 14.2109 10.4871 14.5173 9.31735 14.5173C7.05781 14.5173 5.14099 12.9947 4.45453 10.9424H1.57727V13.1747C3.00276 16.0034 5.93259 17.9445 9.31735 17.9445C11.6568 17.9445 13.6221 17.1751 15.0527 15.8508L12.2634 13.6873Z" fill="#34A853"/>
<path id="Vector_6" d="M4.18272 9.28671C4.18272 8.71045 4.27876 8.1534 4.45366 7.62971V5.39746H1.5764C0.986996 6.56717 0.655396 7.88751 0.655396 9.28671C0.655396 10.6859 0.988007 12.0062 1.5764 13.1759L4.45366 10.9437C4.27876 10.42 4.18272 9.86297 4.18272 9.28671Z" fill="#FABB05"/>
<path id="Vector_7" d="M9.31736 4.05467C10.5942 4.05467 11.7376 4.49445 12.6405 5.35378L15.1123 2.88395C13.611 1.48577 11.6537 0.627441 9.31736 0.627441C5.9336 0.627441 3.00276 2.56853 1.57727 5.39725L4.45453 7.6295C5.14099 5.57721 7.05781 4.05467 9.31736 4.05467Z" fill="#E94235"/>
</g>
</svg>
