<svg width="60" height="20" viewBox="0 0 60 20" fill="none" xmlns="http://www.w3.org/2000/svg">
<path id="icon-visa" fill-rule="evenodd" clip-rule="evenodd" d="M9.20297 0.802246C10.9773 0.802246 12.3573 1.79126 12.3573 3.17588L13.0287 11.1977C13.026 11.1918 13.0234 11.1858 13.0207 11.1799L13.5399 13.2636L18.2713 1.19775H23.0027L15.7085 18.9999H10.5828L6.09225 3.41832C4.47782 2.42757 2.62152 1.64327 0.528687 1.19785V0.802246H9.20297ZM22.017 18.9999L24.9742 1.19775H29.7056L26.7485 18.9999H22.017ZM36.6056 6.34061C36.6056 7.13182 37.5913 7.72523 39.1684 8.51644L39.3656 8.71424C42.1256 9.90105 43.3084 11.2856 43.3084 13.2636C43.3084 16.8241 40.1542 19.1977 35.0284 19.1977C33.057 19.1977 30.8885 18.8021 29.9027 18.4065L30.4942 14.4505L31.0856 14.6483C32.4971 15.3353 34.0515 15.6743 35.6199 15.6373C36.9999 15.6373 38.3799 15.0439 38.3799 13.857C38.3799 13.2636 37.7884 12.6702 35.817 11.879C34.2399 11.0878 31.8742 9.50545 31.8742 7.13182C31.8742 3.76919 35.0284 1.39556 39.7599 1.39556C41.1751 1.4168 42.5759 1.68451 43.8999 2.18677L43.1113 5.54941H42.717C41.6051 5.03132 40.3944 4.76137 39.1684 4.7582C37.3942 4.7582 36.6056 5.54941 36.6056 6.34061ZM52.1799 1.19775H55.7284L59.6713 18.9999H55.5313L54.7427 15.4395H49.2227L47.8427 18.9999H42.717L49.8142 2.78018C50.2084 1.59336 51.1941 1.19775 52.1799 1.19775ZM52.377 5.94501L50.4056 11.879H53.757L52.377 5.94501Z" fill="#1434CB"/>
</svg>
