<?xml version="1.0" encoding="utf-8"?>
<!-- Generator: Adobe Illustrator 27.6.1, SVG Export Plug-In . SVG Version: 6.00 Build 0)  -->
<svg version="1.1" id="Шар_1" xmlns="http://www.w3.org/2000/svg" xmlns:xlink="http://www.w3.org/1999/xlink" x="0px" y="0px"
	 viewBox="0 0 41 32" style="enable-background:new 0 0 41 32;" xml:space="preserve">
<style type="text/css">
	.st0{fill:#FF5F00;}
	.st1{fill:#EB001B;}
	.st2{fill:#F79E1B;}
</style>
<g>
	<path class="st0" d="M26,6H15v20H26V6z"/>
	<path class="st1" d="M15.7,16c0-4.1,1.9-7.7,4.8-10c-2.1-1.7-4.9-2.7-7.8-2.7C5.7,3.3,0,9,0,16c0,7,5.7,12.7,12.7,12.7
		c3,0,5.7-1,7.8-2.7C17.6,23.7,15.7,20.1,15.7,16z"/>
	<path class="st2" d="M41,16c0,7-5.7,12.7-12.7,12.7c-3,0-5.7-1-7.8-2.7c3-2.3,4.8-5.9,4.8-10c0-4.1-1.9-7.7-4.8-10
		c2.1-1.7,4.9-2.7,7.8-2.7C35.3,3.3,41,9,41,16z"/>
</g>
</svg>
