<svg width="20" height="20" viewBox="0 0 20 20" fill="none" xmlns="http://www.w3.org/2000/svg">
<g id="Vector">
<path d="M5.38503 11.7715C4.53659 11.7715 3.84661 11.0807 3.84661 10.233C3.84661 9.38536 4.53659 8.69461 5.38503 8.69461C6.23346 8.69461 6.92344 9.38459 6.92344 10.233C6.92344 11.0815 6.23346 11.7715 5.38503 11.7715ZM10.0003 11.7715C9.15184 11.7715 8.46186 11.0807 8.46186 10.233C8.46186 9.38536 9.15184 8.69461 10.0003 8.69461C10.8487 8.69461 11.5387 9.38459 11.5387 10.233C11.5387 11.0815 10.8487 11.7715 10.0003 11.7715ZM14.6155 11.7715C13.7671 11.7715 13.0771 11.0807 13.0771 10.233C13.0771 9.38536 13.7671 8.69461 14.6155 8.69461C15.464 8.69461 16.154 9.38459 16.154 10.233C16.154 11.0815 15.464 11.7715 14.6155 11.7715Z" fill="#C0C0C0"/>
<path d="M0.769775 19.9997C0.656926 20 0.545397 19.9754 0.443128 19.9277C0.34086 19.88 0.250367 19.8103 0.178094 19.7237C0.10582 19.637 0.0535439 19.5355 0.0249866 19.4263C-0.00357072 19.3171 -0.00770652 19.203 0.0128737 19.092L0.925925 14.0875C0.341789 12.7968 0.0406937 11.396 0.0428728 9.97919C0.0428728 4.47627 4.51967 0.000244141 10.0211 0.000244141C15.5224 0.000244141 20 4.47704 20 9.97919C20 15.4813 15.5232 19.9574 10.0211 19.9574C8.59263 19.9574 7.2119 19.6605 5.91271 19.0743L0.908233 19.9874C0.862584 19.9959 0.816216 20 0.769775 19.9997ZM6.01578 17.5044C6.13111 17.5045 6.24494 17.5305 6.34885 17.5805C7.50497 18.1367 8.74109 18.419 10.0211 18.419C14.6755 18.419 18.4616 14.6329 18.4616 9.97919C18.4616 5.32548 14.6755 1.53866 10.0211 1.53866C5.36657 1.53866 1.58129 5.32471 1.58129 9.97919C1.58129 11.2592 1.86359 12.4945 2.41973 13.6514C2.48973 13.7975 2.51203 13.9629 2.48357 14.1229L1.7259 18.2743L5.87732 17.5174C5.92348 17.509 5.96963 17.5044 6.01578 17.5044Z" fill="#C0C0C0"/>
</g>
</svg>
