<svg xmlns="http://www.w3.org/2000/svg" version="1.1" xmlns:xlink="http://www.w3.org/1999/xlink" xmlns:svgjs="http://svgjs.dev/svgjs" width="2000" height="666" viewBox="0 0 2000 666"><g transform="matrix(1,0,0,1,-1.2121212121212466,-0.7309377829474215)"><svg viewBox="0 0 396 132" data-background-color="#ffffff" preserveAspectRatio="xMidYMid meet" height="666" width="2000" xmlns="http://www.w3.org/2000/svg" xmlns:xlink="http://www.w3.org/1999/xlink"><g id="tight-bounds" transform="matrix(1,0,0,1,0.2400000000000091,0.14487055157516693)"><svg viewBox="0 0 395.52 131.7102588968497" height="131.7102588968497" width="395.52"><g><svg viewBox="0 0 620.9434531378488 206.7774650411861" height="131.7102588968497" width="395.52"><g transform="matrix(1,0,0,1,225.42345313784878,63.89723805130617)"><svg viewBox="0 0 395.52 78.98298893857377" height="78.98298893857377" width="395.52"><g id="textblocktransform"><svg viewBox="0 0 395.52 78.98298893857377" height="78.98298893857377" width="395.52" id="textblock"><g><svg viewBox="0 0 395.52 78.98298893857377" height="78.98298893857377" width="395.52"><g transform="matrix(1,0,0,1,0,0)"><svg width="395.52" viewBox="2.37 -32.4 207.46 41.43" height="78.98298893857377" data-palette-color="#4a596d"><path d="M27.22 0L22.88 0 22.88-12.13 8.86-12.13 2.37-18.63 2.37-25.93 8.86-32.4 12.52-32.4 12.52-20.9 27.42-20.9 33.69-14.4 33.69-6.47 27.22 0ZM22.88-26.56L14.23-26.56 14.23-32.4 27.2-32.4 32.81-26.76 32.81-23.32 22.88-23.32 22.88-26.56ZM2.37-6.47L2.37-9.72 13.16-9.72 13.16-5.86 21.17-5.86 21.17 0 7.81 0 2.37-6.47ZM55.69-25.93L66.48-25.93 66.48 0 55.69 0 55.69-25.93ZM49.17-25.93L49.17-6.47 53.98-6.47 53.98-3.25 50.85 0 44.87 0 38.38-6.47 38.38-25.93 49.17-25.93ZM82.44 0L71.55 0 71.55-25.93 82.44-25.93 82.44 0ZM88.84 0L88.84-19.46 84.2-19.46 84.2-22.29 87.81-25.93 93.82-25.93 99.65-20.09 99.65 0 88.84 0ZM111.08 0L101.77-25.93 112.08-25.93 116.3-12.43 119.3-21.78 123.19-9.84 120.11 0.02 120.09 0 111.08 0ZM128.19 0L119.45-25.93 129.63-25.93 137.98 0 128.19 0ZM147.53-25.93L139.06-1.61 134.51-15.58 137.42-25.93 147.53-25.93ZM177.36 0L166.81 0 166.81-19.46 151.45-19.46 151.45-22.68 154.7-25.93 170.89-25.93 177.36-19.46 177.36 0ZM153.63-15.09L165.1-15.09 165.1-10.6 159.54-10.6 159.54-6.05 165.1-6.05 165.1-3.2 161.88 0 153.63 0 149.28-4.27 149.28-10.77 153.63-15.09ZM209.83-25.93L196.67 9.03 186.32 9.03 199.45-25.93 209.83-25.93ZM188.9-2.17L179.33-25.93 190.1-25.93 193.74-15.38 188.9-2.17Z" opacity="1" transform="matrix(1,0,0,1,0,0)" fill="#ffffff" class="wordmark-text-0" data-fill-palette-color="primary" id="text-0"></path></svg></g></svg></g></svg></g></svg></g><g><svg viewBox="0 0 206.77746504118605 206.7774650411861" height="206.7774650411861" width="206.77746504118605"><g><svg xmlns="http://www.w3.org/2000/svg" xmlns:xlink="http://www.w3.org/1999/xlink" version="1.1" x="0" y="0" viewBox="14.189 14.189 71.62199999999999 71.62200000000001" enable-background="new 0 0 100 100" xml:space="preserve" height="206.7774650411861" width="206.77746504118605" class="icon-icon-0" data-fill-palette-color="accent" id="icon-0"><g fill="#4a596d" data-fill-palette-color="accent"><path d="M77.284 74.943c0 1.293-1.047 2.341-2.342 2.341H25.057c-1.292 0-2.34-1.048-2.34-2.341V25.056c0-1.292 1.048-2.34 2.34-2.34h49.885c1.295 0 2.342 1.048 2.342 2.34V74.943z" fill="#ffffff" data-fill-palette-color="accent"></path><g fill="#4a596d" data-fill-palette-color="accent"><g fill="#4a596d" data-fill-palette-color="accent"><rect x="32.91" y="14.189" width="6.101" height="6.102" fill="#ffffff" data-fill-palette-color="accent"></rect><rect x="42.269" y="14.189" width="6.101" height="6.102" fill="#ffffff" data-fill-palette-color="accent"></rect><rect x="51.63" y="14.189" width="6.101" height="6.102" fill="#ffffff" data-fill-palette-color="accent"></rect><rect x="60.989" y="14.189" width="6.101" height="6.102" fill="#ffffff" data-fill-palette-color="accent"></rect></g><g fill="#4a596d" data-fill-palette-color="accent"><rect x="32.91" y="79.709" width="6.101" height="6.102" fill="#ffffff" data-fill-palette-color="accent"></rect><rect x="42.269" y="79.709" width="6.101" height="6.102" fill="#ffffff" data-fill-palette-color="accent"></rect><rect x="51.63" y="79.709" width="6.101" height="6.102" fill="#ffffff" data-fill-palette-color="accent"></rect><rect x="60.989" y="79.709" width="6.101" height="6.102" fill="#ffffff" data-fill-palette-color="accent"></rect></g></g><g fill="#4a596d" data-fill-palette-color="accent"><g fill="#4a596d" data-fill-palette-color="accent"><rect x="79.708" y="32.91" width="6.103" height="6.101" fill="#ffffff" data-fill-palette-color="accent"></rect><rect x="79.708" y="42.269" width="6.103" height="6.102" fill="#ffffff" data-fill-palette-color="accent"></rect><rect x="79.708" y="51.629" width="6.103" height="6.102" fill="#ffffff" data-fill-palette-color="accent"></rect><rect x="79.708" y="60.989" width="6.103" height="6.101" fill="#ffffff" data-fill-palette-color="accent"></rect></g><g fill="#4a596d" data-fill-palette-color="accent"><rect x="14.189" y="32.91" width="6.102" height="6.101" fill="#ffffff" data-fill-palette-color="accent"></rect><rect x="14.189" y="42.269" width="6.102" height="6.102" fill="#ffffff" data-fill-palette-color="accent"></rect><rect x="14.189" y="51.629" width="6.102" height="6.102" fill="#ffffff" data-fill-palette-color="accent"></rect><rect x="14.189" y="60.989" width="6.102" height="6.101" fill="#ffffff" data-fill-palette-color="accent"></rect></g></g></g></svg></g></svg></g></svg></g><defs></defs></svg><rect width="395.52" height="131.7102588968497" fill="none" stroke="none" visibility="hidden"></rect></g></svg></g></svg>