
<svg class='header__basket-icon'  xmlns="http://www.w3.org/2000/svg" width="30" height="30" viewBox="0 0 24 18" >                 
      
<path fill-rule="evenodd" clip-rule="evenodd" d="M11.9968 2.18281C11.5329 2.18281 11.1568 2.55887 11.1568 3.02278C11.1568 3.4867 11.5329 3.86276 11.9968 3.86276C12.4607 3.86276 12.8367 3.48669 12.8367 3.02278C12.8367 2.55888 12.4607 2.18281 11.9968 2.18281ZM9.95729 2.37278C10.2324 1.50871 11.0415 0.882812 11.9968 0.882812C12.952 0.882812 13.7611 1.50871 14.0362 2.37278H19.9051C20.2641 2.37278 20.5551 2.6638 20.5551 3.02278C20.5551 3.38177 20.2641 3.67278 19.9051 3.67278H14.0362C13.7611 4.53685 12.952 5.16276 11.9968 5.16276C11.0415 5.16276 10.2324 4.53685 9.95729 3.67278H4.08272C3.72373 3.67278 3.43272 3.38177 3.43272 3.02278C3.43272 2.6638 3.72373 2.37278 4.08272 2.37278H9.95729ZM5.29186 5.02636C5.54796 5.02636 5.78019 5.17674 5.88497 5.41043L8.62392 11.5192H9.58415L9.58988 11.5192L9.59561 11.5192C9.95459 11.5192 10.2456 11.8102 10.2456 12.1692C10.2456 12.8189 10.1176 13.4624 9.86896 14.0627C9.6203 14.663 9.25584 15.2085 8.79637 15.6679C8.33691 16.1274 7.79145 16.4919 7.19113 16.7405C6.59081 16.9892 5.94739 17.1172 5.29761 17.1172C4.64783 17.1172 4.00441 16.9892 3.40409 16.7405C2.80377 16.4919 2.25831 16.1274 1.79884 15.6679C1.33938 15.2085 0.974914 14.663 0.726253 14.0627C0.477593 13.4624 0.349609 12.8189 0.349609 12.1692C0.349609 11.8102 0.640624 11.5192 0.999609 11.5192H1.95979L4.69875 5.41043C4.80352 5.17674 5.03575 5.02636 5.29186 5.02636ZM2.36413 12.8192C2.37494 12.8194 2.38572 12.8194 2.39649 12.8192H8.18723C8.19799 12.8194 8.20878 12.8194 8.21958 12.8192H8.88723C8.84103 13.0743 8.76763 13.3245 8.66792 13.5652C8.48459 14.0078 8.21588 14.4099 7.87713 14.7487C7.53839 15.0874 7.13623 15.3562 6.69364 15.5395C6.25104 15.7228 5.77667 15.8172 5.29761 15.8172C4.81855 15.8172 4.34418 15.7228 3.90158 15.5395C3.45898 15.3562 3.05683 15.0874 2.71808 14.7487C2.37934 14.4099 2.11063 14.0078 1.9273 13.5652C1.82758 13.3245 1.75419 13.0743 1.70798 12.8192H2.36413ZM7.19923 11.5192H3.38448L5.29186 7.26512L7.19923 11.5192ZM18.6959 5.02636C18.952 5.02636 19.1842 5.17674 19.289 5.41043L22.0279 11.5192H22.9881L22.9939 11.5192L22.9996 11.5192C23.3586 11.5192 23.6496 11.8102 23.6496 12.1692C23.6496 13.4815 23.1283 14.74 22.2004 15.6679C21.2724 16.5959 20.0139 17.1172 18.7016 17.1172C17.3893 17.1172 16.1308 16.5959 15.2028 15.6679C14.2749 14.74 13.7536 13.4815 13.7536 12.1692C13.7536 11.8102 14.0446 11.5192 14.4036 11.5192H15.3638L18.1027 5.41043C18.2075 5.17674 18.4398 5.02636 18.6959 5.02636ZM15.7681 12.8192C15.7789 12.8194 15.7897 12.8194 15.8005 12.8192H21.5912C21.602 12.8194 21.6128 12.8194 21.6236 12.8192H22.2913C22.1598 13.5452 21.8101 14.2198 21.2811 14.7487C20.597 15.4328 19.6691 15.8172 18.7016 15.8172C17.7341 15.8172 16.8062 15.4328 16.1221 14.7487C15.5932 14.2198 15.2434 13.5452 15.112 12.8192H15.7681ZM20.6032 11.5192H16.7885L18.6959 7.26512L20.6032 11.5192Z" ></path>
</svg>