<svg class="tele-icon" viewBox="0 0 30 30">                        
<path fill="currentColor" d="M21.24 12.34a.467.467 0 01-.613-.247 5.195 5.195 0 00-1.103-1.63h-.001a5.213 5.213 0 00-1.63-1.105.466.466 0 11.361-.86 6.096 6.096 0 011.931 1.3v.005c.277.276.528.579.746.9.215.32.403.662.556 1.024a.466.466 0 01-.247.613zm2.893.023a.468.468 0 01-.573-.331c-.18-.67-.45-1.31-.794-1.903a8.041 8.041 0 00-2.91-2.91 7.907 7.907 0 00-1.903-.793.468.468 0 11.241-.904 8.977 8.977 0 012.131.887 8.93 8.93 0 014.14 5.38.468.468 0 01-.332.574zm2.843.007a.468.468 0 01-.55-.37 10.643 10.643 0 00-1.06-2.956l-.013-.023a10.863 10.863 0 00-1.873-2.513l-.002-.002a10.697 10.697 0 00-5.494-2.944.469.469 0 01.18-.919c1.126.223 2.21.616 3.218 1.155a11.81 11.81 0 012.757 2.048l.002.002c.81.81 1.494 1.731 2.033 2.729l.015.026c.54 1.006.933 2.09 1.157 3.218a.47.47 0 01-.37.549zm2.9 12.804a.468.468 0 01-.654.102l-7.306-5.353-.473.473-.757.756c-1.8 1.8-4.501 1.376-6.988-.138a14.305 14.305 0 01-2.643-2.094 14.38 14.38 0 01-2.096-2.642c-1.516-2.487-1.946-5.185-.157-6.973l1.245-1.244-5.034-6.865L3.64 2.558l1.167 1.593 1.398 1.905 1.398 1.906a.469.469 0 01-.754.553L5.451 6.607 4.053 4.702 2.969 3.223l-.227.226v.003l-.02.02C.94 5.253.472 7.62 1.386 10.488c.95 2.98 3.364 6.496 7.309 10.47l.16.158c.27.268.492.487.664.653 3.831 3.712 7.236 5.99 10.124 6.872 2.782.851 5.078.39 6.803-1.333l.024-.023.055-.055.228-.235-1.475-1.081-1.908-1.398-1.908-1.396a.467.467 0 01.553-.755l1.907 1.399 3.803 2.785a.468.468 0 01.071.713l-.601.618-.002.003-.057.058-.027.03c-1.986 1.984-4.597 2.523-7.737 1.563-3.032-.928-6.566-3.278-10.505-7.094a57.155 57.155 0 01-.675-.663h.001v-.002l-.161-.16C3.98 17.535 1.49 13.892.496 10.771-.535 7.539.012 4.856 2.06 2.808l.02-.02v.002l.002-.002L4.74.151a.469.469 0 01.706.056l5.571 7.596a.468.468 0 01-.023.636L9.466 9.967c-1.424 1.424-1.009 3.691.291 5.823a13.49 13.49 0 001.961 2.467c.761.76 1.605 1.434 2.467 1.959 2.132 1.298 4.403 1.708 5.838.273l.757-.755.756-.757.001.001a.466.466 0 01.607-.046l7.63 5.59a.466.466 0 01.101.652z"></path></svg>